<svg xmlns="http://www.w3.org/2000/svg" width="22.584" height="23.179" viewBox="0 0 22.584 23.179">
  <g id="Icon_-_Buy" data-name="Icon - Buy" transform="translate(-55.7 -48)">
    <path id="Caminho_5" data-name="Caminho 5" d="M157.764,145.9H145.937a.865.865,0,0,1-.845-.673l-1.992-8.676a.865.865,0,0,1,.843-1.059h15.814a.865.865,0,0,1,.845,1.059l-1.995,8.676A.865.865,0,0,1,157.764,145.9Zm-11.139-1.73h10.451l1.6-6.947H145.029Z" transform="translate(-82.341 -82.445)" fill="#adadad"/>
    <path id="Caminho_6" data-name="Caminho 6" d="M167.834,341.668a3.314,3.314,0,1,1,3.314-3.314A3.314,3.314,0,0,1,167.834,341.668Zm0-4.9a1.584,1.584,0,1,0,1.584,1.584A1.584,1.584,0,0,0,167.834,336.77Z" transform="translate(-102.546 -270.49)" fill="#adadad"/>
    <path id="Caminho_7" data-name="Caminho 7" d="M314.254,341.668a3.314,3.314,0,1,1,3.314-3.314A3.314,3.314,0,0,1,314.254,341.668Zm0-4.9a1.584,1.584,0,1,0,1.584,1.584A1.584,1.584,0,0,0,314.254,336.77Z" transform="translate(-240.523 -270.49)" fill="#adadad"/>
    <path id="Caminho_8" data-name="Caminho 8" d="M61.6,54.774a.865.865,0,0,1-.82-.591L59.3,49.73H56.565a.865.865,0,0,1,0-1.73h3.361a.865.865,0,0,1,.82.591l1.68,5.045a.865.865,0,0,1-.82,1.138Z" transform="translate(0 0)" fill="#adadad"/>
  </g>
</svg>
